name D:\school\WTK\thesis\model\3dpredictsim\Results\MidTarsalJoint\Fal_s1_bCst_PF_Natali2010_ls150_MT_k300_MTP_T1_spx10_ig23_PFx10_spx10.mot
datacolumns 128
datarows 4
range 1.61640356 1.64873164
endheader
time	pelvis_tilt	pelvis_list	pelvis_rotation	pelvis_tx	pelvis_ty	pelvis_tz	hip_flexion_l	hip_adduction_l	hip_rotation_l	hip_flexion_r	hip_adduction_r	hip_rotation_r	knee_angle_l	knee_angle_r	ankle_angle_l	ankle_angle_r	subtalar_angle_l	subtalar_angle_r	mtj_angle_l	mtj_angle_r	mtp_angle_l	mtp_angle_r	lumbar_extension	lumbar_bending	lumbar_rotation	arm_flex_l	arm_add_l	arm_rot_l	arm_flex_r	arm_add_r	arm_rot_r	elbow_flex_l	elbow_flex_r	pro_sup_l	pro_sup_r	glut_med1_l/activation	glut_med2_l/activation	glut_med3_l/activation	glut_min1_l/activation	glut_min2_l/activation	glut_min3_l/activation	semimem_l/activation	semiten_l/activation	bifemlh_l/activation	bifemsh_l/activation	sar_l/activation	add_long_l/activation	add_brev_l/activation	add_mag1_l/activation	add_mag2_l/activation	add_mag3_l/activation	tfl_l/activation	pect_l/activation	grac_l/activation	glut_max1_l/activation	glut_max2_l/activation	glut_max3_l/activation	iliacus_l/activation	psoas_l/activation	quad_fem_l/activation	gem_l/activation	peri_l/activation	rect_fem_l/activation	vas_med_l/activation	vas_int_l/activation	vas_lat_l/activation	med_gas_l/activation	lat_gas_l/activation	soleus_l/activation	tib_post_l/activation	flex_dig_l/activation	flex_hal_l/activation	tib_ant_l/activation	per_brev_l/activation	per_long_l/activation	per_tert_l/activation	ext_dig_l/activation	ext_hal_l/activation	ercspn_l/activation	intobl_l/activation	extobl_l/activation	glut_med1_r/activation	glut_med2_r/activation	glut_med3_r/activation	glut_min1_r/activation	glut_min2_r/activation	glut_min3_r/activation	semimem_r/activation	semiten_r/activation	bifemlh_r/activation	bifemsh_r/activation	sar_r/activation	add_long_r/activation	add_brev_r/activation	add_mag1_r/activation	add_mag2_r/activation	add_mag3_r/activation	tfl_r/activation	pect_r/activation	grac_r/activation	glut_max1_r/activation	glut_max2_r/activation	glut_max3_r/activation	iliacus_r/activation	psoas_r/activation	quad_fem_r/activation	gem_r/activation	peri_r/activation	rect_fem_r/activation	vas_med_r/activation	vas_int_r/activation	vas_lat_r/activation	med_gas_r/activation	lat_gas_r/activation	soleus_r/activation	tib_post_r/activation	flex_dig_r/activation	flex_hal_r/activation	tib_ant_r/activation	per_brev_r/activation	per_long_r/activation	per_tert_r/activation	ext_dig_r/activation	ext_hal_r/activation	ercspn_r/activation	intobl_r/activation	extobl_r/activation	
          1.61640356	         -2.93009140	          0.83488342	         -3.94340770	          2.02050446	          0.93356545	          0.00225669	         28.12979564	          2.23525099	         -1.18791262	        -15.58101554	          0.48123510	          6.79485329	        -10.59698318	         -7.54026480	          6.38434142	          6.17297264	         -3.12258772	         12.36823900	         -0.51960335	          0.50859479	         -1.53172618	          3.42257943	         -1.59193933	          0.59568887	          1.66352948	         -4.98558363	        -13.46185320	          7.65854549	          4.51481545	        -13.45142754	         13.60077946	         17.41425308	         28.09787992	         86.51662706	         86.51662706	          0.05000024	          0.05000012	          0.05898002	          0.05000003	          0.05000005	          0.05000040	          0.10991046	          0.05898053	          0.16709493	          0.05000070	          0.05000013	          0.14915542	          0.18599623	          0.13899171	          0.14876629	          0.11878741	          0.05897993	          0.05000120	          0.08665343	          0.05898006	          0.05898017	          0.11761725	          0.05000002	          0.05000003	          0.17572072	          0.05000010	          0.05000016	          0.05000003	          0.05000120	          0.05000148	          0.05000067	          0.05000000	          0.05000001	          0.05000000	          0.05491355	          0.05000038	          0.05000134	          0.43113245	          0.18860389	          0.19273420	          0.09362546	          0.44156990	          0.14722238	          0.05921109	          0.12457979	          0.10796763	          0.32206484	          0.17865604	          0.11014872	          0.33572945	          0.26810542	          0.16447662	          0.05000034	          0.05000006	          0.05000004	          0.07108722	          0.12695864	          0.05000000	          0.05000000	          0.05000002	          0.05000008	          0.05000006	          0.35960916	          0.05000004	          0.05000005	          0.05897969	          0.05000223	          0.05000018	          0.38653969	          0.66582378	          0.05000002	          0.05000028	          0.08301098	          0.16627568	          0.05000005	          0.05000005	          0.05000004	          0.35685052	          0.42394536	          0.39612924	          0.24435521	          0.19711630	          0.27863973	          0.05000001	          0.18478308	          0.21588605	          0.05000005	          0.05000001	          0.05000007	          0.05000000	          0.05000000	          0.05000000	
          1.62717959	         -2.92900766	          0.87312299	         -4.13444261	          2.03618191	          0.93322147	          0.00203455	         27.65361423	          2.59782646	         -1.04297309	        -15.54613824	          0.27177219	          6.72638022	        -10.56668761	         -9.20266425	          5.98806097	          5.64154795	         -3.39850164	         13.22119384	         -0.51064823	         -0.10884207	         -1.54493171	          5.22710207	         -1.44073852	          0.41576577	          1.72910547	         -5.70205118	        -13.45333957	          7.41366639	          4.35694675	        -13.45841010	         14.00032649	         17.11689354	         28.98922136	         86.51662706	         86.51662706	          0.05898000	          0.05898000	          0.05000002	          0.05898002	          0.05898002	          0.05897983	          0.09771590	          0.05000046	          0.15148755	          0.05000002	          0.05000007	          0.17931230	          0.33427243	          0.11782957	          0.16697541	          0.12533359	          0.05000003	          0.09165853	          0.07346007	          0.05000007	          0.05000014	          0.16498361	          0.07421670	          0.05000021	          0.34395652	          0.24339195	          0.10660959	          0.05898043	          0.08153003	          0.08367117	          0.06795349	          0.05738801	          0.05071305	          0.05603453	          0.05000000	          0.05000103	          0.05000008	          0.49251561	          0.15988802	          0.16606552	          0.13606643	          0.46610796	          0.12480701	          0.05019589	          0.10561186	          0.09152899	          0.27302878	          0.15145473	          0.09337800	          0.28461289	          0.22728497	          0.13943420	          0.05000013	          0.05000004	          0.05000004	          0.06026383	          0.10762855	          0.08017146	          0.05003052	          0.05000047	          0.05000054	          0.05000014	          0.30485680	          0.07496373	          0.05000181	          0.05000044	          0.05000021	          0.05000022	          0.32768699	          0.61555024	          0.05583524	          0.05000050	          0.07037218	          0.15608936	          0.05000026	          0.05000025	          0.05000040	          0.30251814	          0.35939745	          0.33950842	          0.21645829	          0.16710447	          0.23621557	          0.05000000	          0.18879764	          0.22237987	          0.05000003	          0.05000000	          0.05000003	          0.05000004	          0.05208932	          0.08206853	
          1.63795561	         -2.92407327	          0.92318053	         -4.29540212	          2.05210459	          0.93290825	          0.00180677	         27.14844945	          2.92289957	         -0.86311214	        -15.42616527	          0.06231028	          6.65307080	        -11.06385574	        -11.01019683	          5.31741023	          4.96820457	         -3.62609207	         14.04065335	         -0.53514349	         -0.80111780	         -1.53642801	          7.21089666	         -1.27480858	          0.21297927	          1.78902896	         -6.42353483	        -13.45035363	          7.19787306	          4.13074187	        -13.46849097	         14.35311304	         16.83300365	         29.87375429	         86.51662706	         86.51662706	          0.05000000	          0.05000000	          0.11720892	          0.05000001	          0.05000001	          0.05000001	          0.08283816	          0.05406774	          0.12842278	          0.08206823	          0.06957316	          0.15201111	          0.28337780	          0.34196939	          0.22343426	          0.12432387	          0.05000008	          0.07770331	          0.15592696	          0.05836039	          0.09673263	          0.14407342	          0.06957277	          0.06957292	          0.51337366	          0.20633425	          0.09037773	          0.05000037	          0.06911666	          0.07093181	          0.05760722	          0.06957284	          0.06957287	          0.06957284	          0.05752373	          0.05000028	          0.05898020	          0.41752755	          0.13554424	          0.21014683	          0.11534960	          0.44548900	          0.14313443	          0.05000000	          0.08953190	          0.07759322	          0.23145871	          0.12839495	          0.07916072	          0.24127909	          0.19267964	          0.11820462	          0.05080512	          0.05000067	          0.05897965	          0.05108835	          0.09124156	          0.12833565	          0.05898019	          0.05898116	          0.05898042	          0.05898092	          0.25844079	          0.06355027	          0.05898016	          0.05897962	          0.05898027	          0.05898041	          0.27779492	          0.57958746	          0.06803547	          0.05911050	          0.05965769	          0.13470355	          0.11613993	          0.12178502	          0.08149134	          0.25645816	          0.30467729	          0.28781647	          0.18350139	          0.14166197	          0.20025054	          0.05000000	          0.16005257	          0.23121072	          0.05000002	          0.05000001	          0.05000003	          0.06017123	          0.06957284	          0.06957322	
          1.64873164	         -2.91548006	          0.99665347	         -4.42739552	          2.06819700	          0.93258329	          0.00160584	         26.60303522	          3.15576495	         -0.64982443	        -15.23232440	         -0.15247829	          6.56558120	        -11.77059206	        -12.93386083	          4.53265963	          4.16216549	         -3.85145581	         14.79668346	         -0.55994855	         -1.53033659	         -1.46330671	          9.21797729	         -1.09881192	         -0.02459228	          1.83831590	         -7.13645296	        -13.46320204	          7.03597463	          3.84917899	        -13.47486011	         14.65840849	         16.55031092	         30.75260694	         86.51662706	         86.51662706	          0.27477048	          0.28066109	          0.36956448	          0.44682179	          0.28862349	          0.32447348	          0.07906494	          0.05000014	          0.11184185	          0.06957293	          0.05898031	          0.12886662	          0.24023208	          0.28990276	          0.18941526	          0.15497677	          0.05000010	          0.06587297	          0.13218630	          0.05000003	          0.15010290	          0.16658119	          0.05898003	          0.05898008	          0.43520981	          0.17491880	          0.17589416	          0.05000003	          0.07159102	          0.08654647	          0.05618294	          0.05898001	          0.05898003	          0.05898001	          0.05000005	          0.05000019	          0.05000028	          0.54824506	          0.28065529	          0.17815088	          0.41751587	          0.55662252	          0.24309622	          0.06479845	          0.09680772	          0.06577924	          0.27362309	          0.10884615	          0.06710808	          0.29313166	          0.16334318	          0.10020735	          0.05000020	          0.05000004	          0.05000002	          0.05000010	          0.07734973	          0.10879589	          0.05000017	          0.05000099	          0.05000041	          0.05000079	          0.29590637	          0.05387460	          0.05000022	          0.05000045	          0.05000035	          0.05000037	          0.24537648	          0.55880852	          0.05767671	          0.05011064	          0.05057450	          0.11419423	          0.09845703	          0.10324262	          0.06908386	          0.21741105	          0.25828856	          0.24399489	          0.15556235	          0.12009321	          0.16976136	          0.07327546	          0.20063836	          0.19615496	          0.09126924	          0.12275621	          0.05000054	          0.07062614	          0.05898001	          0.05898033	
